<?xml version="1.0" encoding="UTF-8" standalone="no"?>
<svg
   xmlns:dc="http://purl.org/dc/elements/1.1/"
   xmlns:cc="http://creativecommons.org/ns#"
   xmlns:rdf="http://www.w3.org/1999/02/22-rdf-syntax-ns#"
   xmlns:svg="http://www.w3.org/2000/svg"
   xmlns="http://www.w3.org/2000/svg"
   xmlns:sodipodi="http://sodipodi.sourceforge.net/DTD/sodipodi-0.dtd"
   xmlns:inkscape="http://www.inkscape.org/namespaces/inkscape"
   width="210mm"
   height="297mm"
   viewBox="0 0 210 297"
   version="1.1"
   id="svg8"
   inkscape:version="1.0.1 (3bc2e813f5, 2020-09-07)"
   sodipodi:docname="satellite.svg">
  <defs
     id="defs2" />
  <sodipodi:namedview
     id="base"
     pagecolor="#ffffff"
     bordercolor="#666666"
     borderopacity="1.0"
     inkscape:pageopacity="0.0"
     inkscape:pageshadow="2"
     inkscape:zoom="0.67623457"
     inkscape:cx="343.37454"
     inkscape:cy="358.30029"
     inkscape:document-units="mm"
     inkscape:current-layer="layer1"
     inkscape:document-rotation="0"
     showgrid="false"
     inkscape:window-width="1600"
     inkscape:window-height="838"
     inkscape:window-x="-6"
     inkscape:window-y="-6"
     inkscape:window-maximized="1" />
  <metadata
     id="metadata5">
    <rdf:RDF>
      <cc:Work
         rdf:about="">
        <dc:format>image/svg+xml</dc:format>
        <dc:type
           rdf:resource="http://purl.org/dc/dcmitype/StillImage" />
        <dc:title></dc:title>
      </cc:Work>
    </rdf:RDF>
  </metadata>
  <g
     inkscape:label="Calque 1"
     inkscape:groupmode="layer"
     id="layer1">
    <g
       id="g974"
       inkscape:export-xdpi="60.587021"
       inkscape:export-ydpi="60.587021">
      <g
         id="g870">
        <rect
           style="fill:#5d77f5;fill-opacity:1;stroke-width:1.55054784;stop-color:#000000;stroke:#000000;stroke-miterlimit:4;stroke-dasharray:none"
           id="rect839"
           width="67.505623"
           height="22.80242"
           x="25.275379"
           y="34.373795"
           transform="matrix(1,0,-0.58238532,0.81291288,0,0)" />
        <path
           style="fill:#ffffff;stroke:#f2f2f2;stroke-width:0.264583px;stroke-linecap:butt;stroke-linejoin:miter;stroke-opacity:1"
           d="M 4.6951164,30.518256 H 69.742041"
           id="path928" />
        <path
           style="fill:#ffffff;stroke:#f2f2f2;stroke-width:0.264583px;stroke-linecap:butt;stroke-linejoin:miter;stroke-opacity:1"
           d="M 2.5431881,33.941778 H 67.590113"
           id="path930" />
        <path
           style="fill:#ffffff;stroke:#f2f2f2;stroke-width:0.264583px;stroke-linecap:butt;stroke-linejoin:miter;stroke-opacity:1"
           d="M -0.39125965,37.463115 H 64.655665"
           id="path932" />
        <path
           style="fill:#ffffff;stroke:#f2f2f2;stroke-width:0.264583px;stroke-linecap:butt;stroke-linejoin:miter;stroke-opacity:1"
           d="M -2.6410029,41.180082 H 62.405922"
           id="path934" />
        <path
           style="fill:#ffffff;stroke:#f2f2f2;stroke-width:0.264583px;stroke-linecap:butt;stroke-linejoin:miter;stroke-opacity:1"
           d="M -4.8907462,44.603604 H 60.156179"
           id="path936" />
        <path
           style="fill:#000000;stroke:#000000;stroke-width:1.165;stroke-linecap:butt;stroke-linejoin:miter;stroke-miterlimit:4;stroke-dasharray:none;stroke-opacity:1"
           d="M 12.226865,46.65772 24.551545,28.366328"
           id="path853" />
        <path
           style="fill:#000000;stroke:#000000;stroke-width:1.165;stroke-linecap:butt;stroke-linejoin:miter;stroke-miterlimit:4;stroke-dasharray:none;stroke-opacity:1"
           d="M 35.213373,46.65772 47.538053,28.366328"
           id="path857" />
        <path
           style="fill:none;stroke:#f9f9f9;stroke-width:0.264583px;stroke-linecap:butt;stroke-linejoin:miter;stroke-opacity:1"
           d="M -1.271594,45.386124 9.0967879,29.540107"
           id="path938" />
        <path
           style="fill:none;stroke:#f9f9f9;stroke-width:0.264583px;stroke-linecap:butt;stroke-linejoin:miter;stroke-opacity:1"
           d="M 4.1082269,45.386124 14.476609,29.540107"
           id="path940" />
        <path
           style="fill:none;stroke:#f9f9f9;stroke-width:0.264583px;stroke-linecap:butt;stroke-linejoin:miter;stroke-opacity:1"
           d="M 9.194603,45.679569 19.562985,29.833552"
           id="path942" />
        <path
           style="fill:none;stroke:#f9f9f9;stroke-width:0.264583px;stroke-linecap:butt;stroke-linejoin:miter;stroke-opacity:1"
           d="M 16.726352,45.679569 27.094734,29.833552"
           id="path944" />
        <path
           style="fill:none;stroke:#f9f9f9;stroke-width:0.264583px;stroke-linecap:butt;stroke-linejoin:miter;stroke-opacity:1"
           d="M 22.301803,45.679569 32.670185,29.833552"
           id="path946" />
        <path
           style="fill:none;stroke:#f9f9f9;stroke-width:0.264583px;stroke-linecap:butt;stroke-linejoin:miter;stroke-opacity:1"
           d="M 28.855403,45.679569 39.223785,29.833552"
           id="path948" />
        <path
           style="fill:none;stroke:#f9f9f9;stroke-width:0.264583px;stroke-linecap:butt;stroke-linejoin:miter;stroke-opacity:1"
           d="M 41.571343,45.483939 51.939725,29.637922"
           id="path950" />
        <path
           style="fill:none;stroke:#f9f9f9;stroke-width:0.264583px;stroke-linecap:butt;stroke-linejoin:miter;stroke-opacity:1"
           d="M 47.146794,45.483939 57.515176,29.637922"
           id="path952" />
        <path
           style="fill:none;stroke:#f9f9f9;stroke-width:0.264583px;stroke-linecap:butt;stroke-linejoin:miter;stroke-opacity:1"
           d="M 54.580728,45.483939 64.94911,29.637922"
           id="path954" />
      </g>
    </g>
    <circle
       style="fill:#4d4d4d;fill-opacity:1;stroke-width:0.198;stop-color:#000000;stroke:#000000"
       id="path837"
       cx="92.6819"
       cy="40.94603"
       r="13.833118"
       inkscape:export-xdpi="60.587021"
       inkscape:export-ydpi="60.587021" />
    <path
       id="circle1020"
       style="fill:#999999;fill-opacity:1;stroke:none;stroke-width:0.198;stop-color:#000000"
       d="m 84.995737,43.489218 c 0,7.639821 15.325983,11.289931 7.686163,11.28993 -7.63982,0 -13.833118,-6.193298 -13.833118,-13.833118 -10e-7,-7.639821 6.193297,-13.833119 13.833118,-13.833119 7.63982,-1e-6 -7.686163,8.736486 -7.686163,16.376307 z"
       sodipodi:nodetypes="sssss"
       inkscape:export-xdpi="60.587021"
       inkscape:export-ydpi="60.587021" />
    <path
       style="fill:none;stroke:#000000;stroke-width:0.865;stroke-linecap:round;stroke-linejoin:miter;stroke-opacity:1;stroke-miterlimit:4;stroke-dasharray:none"
       d="M 66.514148,36.387151 78.838829,37.95219"
       id="path843"
       inkscape:export-xdpi="60.587021"
       inkscape:export-ydpi="60.587021" />
    <path
       style="fill:none;stroke:#000000;stroke-width:0.865;stroke-linecap:round;stroke-linejoin:miter;stroke-opacity:1;stroke-miterlimit:4;stroke-dasharray:none"
       d="M 99.966853,38.539081 125.2031,35.800262"
       id="path845"
       inkscape:export-xdpi="60.587021"
       inkscape:export-ydpi="60.587021" />
    <path
       style="fill:none;stroke:#000000;stroke-width:0.265;stroke-linecap:round;stroke-linejoin:miter;stroke-miterlimit:4;stroke-dasharray:none;stroke-opacity:1"
       d="M 91.404569,31.939206 C 93.323434,24.893574 94.145412,16.8059 103.14236,16.484447"
       id="path847"
       sodipodi:nodetypes="cc"
       inkscape:export-xdpi="60.587021"
       inkscape:export-ydpi="60.587021" />
    <circle
       style="fill:#000000;fill-opacity:1;stroke-width:0.865;stroke-linecap:round;stroke-miterlimit:4;stroke-dasharray:none;stop-color:#000000"
       id="path849"
       cx="103.14236"
       cy="16.484447"
       r="1.5677732"
       inkscape:export-xdpi="60.587021"
       inkscape:export-ydpi="60.587021" />
    <g
       id="g1018"
       transform="translate(0.62249037,2.9741207)"
       inkscape:export-xdpi="60.587021"
       inkscape:export-ydpi="60.587021">
      <path
         style="fill:none;stroke:#000000;stroke-width:0.177997px;stroke-linecap:butt;stroke-linejoin:miter;stroke-opacity:1"
         d="m 82.496427,44.896398 c 5.483344,4.179355 11.106681,4.299058 18.392333,-0.427727"
         id="path892"
         sodipodi:nodetypes="cc" />
      <path
         style="fill:none;stroke:#000000;stroke-width:0.177997px;stroke-linecap:butt;stroke-linejoin:miter;stroke-opacity:1"
         d="m 82.364818,41.079743 c 5.483345,4.179355 10.547344,4.595178 17.832992,-0.131607"
         id="path892-6"
         sodipodi:nodetypes="cc" />
      <path
         style="fill:#db9c9c;fill-opacity:1;stroke:none;stroke-width:0.0329022"
         d="m 90.04058,47.916148 c -2.463639,-0.200937 -4.663912,-1.06392 -7.065538,-2.771214 -0.389089,-0.276602 -0.383372,-0.267531 -0.448802,-0.711924 -0.114226,-0.775795 -0.120611,-1.680523 -0.01767,-2.503787 0.08013,-0.640839 0.02749,-0.612746 0.507387,-0.270796 1.526276,1.08754 3.113371,1.887903 4.613324,2.326476 3.500435,1.023493 7.186033,0.294121 11.49852,-2.275537 l 0.46328,-0.276048 0.563539,-0.05985 c 0.30995,-0.03292 0.57283,-0.05057 0.58419,-0.03923 0.0333,0.03326 0.10411,0.485767 0.14627,0.934077 0.0392,0.416999 0.0216,1.619891 -0.0288,1.966489 -0.0271,0.18649 -0.0173,0.1785 -0.83352,0.677509 -2.731356,1.669776 -5.295095,2.646089 -7.728389,2.943091 -0.425426,0.05193 -1.880925,0.09115 -2.253801,0.06074 z m -0.13047,-1.332576 c 0.06863,-0.643293 0.06378,-0.817885 -0.02647,-0.95299 -0.153778,-0.230194 -0.438109,-0.286277 -0.739643,-0.145893 l -0.172737,0.08042 v -0.07813 c 0,-0.06046 -0.02285,-0.08315 -0.101059,-0.100323 -0.05558,-0.01221 -0.108356,-0.0149 -0.117272,-0.006 -0.0089,0.0089 -0.04415,0.295343 -0.07829,0.636499 -0.03415,0.341158 -0.06993,0.683211 -0.07951,0.76012 l -0.01743,0.139834 h 0.126449 0.126449 l 0.01924,-0.172737 c 0.01057,-0.095 0.03683,-0.353145 0.05833,-0.573648 l 0.03909,-0.400913 0.166263,-0.07152 c 0.212585,-0.09145 0.43367,-0.07496 0.526912,0.03931 0.05667,0.06945 0.06107,0.113995 0.04337,0.439215 -0.01084,0.199059 -0.02958,0.468176 -0.04166,0.598041 l -0.02197,0.236114 0.111501,0.01093 c 0.06132,0.006 0.116007,0.0088 0.121518,0.0061 0.0055,-0.0027 0.03113,-0.202655 0.05693,-0.44446 z m 1.71817,0.385483 c 0.0073,-0.0073 -0.0408,-0.370223 -0.106786,-0.806593 -0.06599,-0.436368 -0.115262,-0.817347 -0.1095,-0.846617 0.006,-0.03066 0.160477,0.171954 0.36429,0.477912 0.473791,0.71124 0.45349,0.712328 0.679491,-0.03643 0.09422,-0.31216 0.183065,-0.604579 0.197434,-0.649818 l 0.02612,-0.08226 0.02102,0.09871 c 0.01157,0.05429 0.07285,0.445254 0.136187,0.86881 0.06334,0.423556 0.12122,0.776154 0.128616,0.783549 0.0074,0.0074 0.06713,0.0034 0.132743,-0.0089 0.112309,-0.02107 0.11825,-0.02842 0.101436,-0.125506 -0.03581,-0.206795 -0.279814,-1.861699 -0.279814,-1.897808 0,-0.03445 -0.17254,-0.02357 -0.332039,0.02093 -0.04633,0.01292 -0.157054,0.343838 -0.365357,1.091872 -0.0165,0.05928 -0.042,0.100367 -0.05665,0.09131 -0.01465,-0.0091 -0.178627,-0.240579 -0.364395,-0.514502 l -0.33776,-0.498039 -0.167888,0.02227 c -0.09234,0.01225 -0.173777,0.02816 -0.180972,0.03535 -0.01264,0.01264 0.244926,1.7953 0.282004,1.951772 0.01572,0.06628 0.03255,0.07442 0.118464,0.05724 0.05509,-0.01102 0.106092,-0.02597 0.113347,-0.03322 z m -3.720259,-0.284201 c 0.152765,-0.0575 0.334596,-0.261148 0.40833,-0.457331 0.143052,-0.380619 0.06983,-0.783312 -0.175569,-0.965506 -0.392756,-0.291604 -0.911964,-0.150208 -1.100482,0.299693 -0.197046,0.470254 -0.07124,0.927077 0.302016,1.096642 0.147004,0.06678 0.424181,0.07977 0.565705,0.0265 z m 6.386227,-0.213464 c 0.06728,-0.028 0.183235,-0.110538 0.257681,-0.183415 0.127826,-0.125137 0.136393,-0.128537 0.154019,-0.06114 0.01614,0.06172 0.03344,0.0682 0.127862,0.04796 0.06006,-0.01287 0.11377,-0.02748 0.119356,-0.03246 0.01312,-0.01169 -0.390515,-1.380927 -0.422168,-1.432144 -0.0302,-0.04886 -0.229742,-0.0098 -0.229201,0.04493 1.78e-4,0.02118 0.06684,0.259333 0.148061,0.529221 0.08122,0.269889 0.147677,0.516166 0.147677,0.547283 0,0.08148 -0.237757,0.284427 -0.378847,0.323383 -0.148157,0.04091 -0.255835,0.0045 -0.332425,-0.112387 -0.03117,-0.04757 -0.121228,-0.302849 -0.200131,-0.567285 -0.0789,-0.264438 -0.149355,-0.486692 -0.15656,-0.493899 -0.03285,-0.03285 -0.215222,0.03598 -0.215222,0.08122 0,0.09219 0.301093,1.046013 0.359969,1.140343 0.129638,0.207699 0.369153,0.272755 0.619929,0.168385 z m -7.524534,-1.148676 c 0.197128,-0.542149 0.347447,-0.994622 0.33404,-1.005494 -0.0134,-0.01088 -0.06394,-0.03654 -0.112288,-0.05705 -0.08047,-0.03412 -0.09062,-0.02977 -0.119806,0.05133 -0.01753,0.04873 -0.18208,0.50142 -0.365644,1.005972 -0.183565,0.50455 -0.329533,0.920637 -0.324375,0.924635 0.05415,0.04196 0.14977,0.08014 0.185323,0.07399 0.02596,-0.0045 0.19288,-0.416196 0.40275,-0.99339 z m -0.962349,0.688056 c 0.021,-0.04609 0.03818,-0.09098 0.03818,-0.09975 0,-0.0088 -0.214687,-0.118154 -0.477083,-0.243068 -0.262394,-0.124915 -0.477082,-0.234444 -0.477082,-0.243399 0,-0.02186 0.294461,-0.655372 0.313448,-0.674361 0.0082,-0.0082 0.231312,0.08685 0.495753,0.211277 0.461817,0.217295 0.482617,0.223748 0.526748,0.163396 0.02527,-0.03456 0.04595,-0.08229 0.04595,-0.106063 0,-0.02378 -0.214688,-0.145729 -0.477082,-0.271005 -0.262396,-0.125278 -0.477083,-0.236005 -0.477083,-0.24606 0,-0.01006 0.0542,-0.127828 0.120457,-0.261719 l 0.120458,-0.243441 0.447105,0.213696 c 0.570167,0.272513 0.546217,0.266757 0.589794,0.141756 l 0.03588,-0.10293 -0.579341,-0.278191 c -0.318637,-0.153006 -0.595711,-0.277663 -0.615719,-0.277017 -0.0328,0.0011 -0.888509,1.773748 -0.881485,1.826077 0.0033,0.02468 1.121316,0.567992 1.177072,0.57202 0.01972,0.0014 0.05303,-0.03512 0.07403,-0.08121 z M 95.84941,45.93248 c 0.34823,-0.132318 0.511706,-0.330745 0.482917,-0.586165 -0.01964,-0.174274 -0.146049,-0.322556 -0.298548,-0.35022 -0.05704,-0.01034 -0.228971,0.0016 -0.382075,0.0264 -0.312351,0.05073 -0.410036,0.03108 -0.467,-0.09394 -0.08725,-0.191498 0.193901,-0.378425 0.571046,-0.37966 l 0.220503,-7.12e-4 -0.04478,-0.106932 c -0.03977,-0.09497 -0.06107,-0.10803 -0.190368,-0.116737 -0.173342,-0.01168 -0.47465,0.09237 -0.618831,0.213692 -0.192854,0.162276 -0.240565,0.349705 -0.141929,0.557565 0.08215,0.173109 0.208064,0.222781 0.487405,0.192274 0.127604,-0.01394 0.305354,-0.02694 0.394998,-0.0289 0.145288,-0.0032 0.168515,0.0063 0.213863,0.08692 0.04548,0.08089 0.04561,0.10007 0.0012,0.180962 -0.02731,0.04977 -0.116148,0.124479 -0.197412,0.166032 -0.123671,0.06323 -0.189329,0.07396 -0.402823,0.0658 -0.140289,-0.0054 -0.255034,-0.0078 -0.254993,-0.0055 3.3e-5,0.0023 0.02249,0.05784 0.04987,0.123382 0.04863,0.116396 0.054,0.119176 0.229963,0.119176 0.09909,0 0.255229,-0.02852 0.346974,-0.06338 z m 1.118709,-0.513247 0.09706,-0.05019 -0.115577,-0.229505 c -0.110372,-0.219171 -0.113458,-0.234575 -0.06854,-0.342073 l 0.04703,-0.112567 0.43046,0.166956 0.430459,0.166956 0.131627,-0.05936 c 0.0724,-0.03265 0.131424,-0.06821 0.131176,-0.07903 -1.78e-4,-0.01082 -0.230778,-0.107455 -0.512287,-0.214734 -0.398551,-0.151881 -0.508507,-0.206499 -0.496786,-0.246766 0.0083,-0.02844 0.08157,-0.24049 0.162876,-0.471216 0.0813,-0.230727 0.141606,-0.419503 0.134002,-0.419503 -0.0076,0 -0.07223,0.0298 -0.143621,0.06622 -0.128149,0.06538 -0.131785,0.07248 -0.28658,0.559338 -0.08623,0.271217 -0.164515,0.49312 -0.173969,0.49312 -0.0095,0 -0.149781,-0.266507 -0.311843,-0.59224 -0.162063,-0.32573 -0.305397,-0.592238 -0.318519,-0.592238 -0.04413,0 -0.191466,0.07614 -0.191466,0.09895 0,0.03979 0.91902,1.908089 0.938596,1.908089 0.01036,0 0.06251,-0.02259 0.115899,-0.05019 z"
         id="path924" />
      <path
         style="fill:#db9c9c;fill-opacity:1;stroke:none;stroke-width:0.0329022"
         d="m 87.43881,46.46154 c -0.255714,-0.119175 -0.31101,-0.435717 -0.143951,-0.824055 0.0927,-0.215483 0.221093,-0.310697 0.415017,-0.307765 0.169037,0.0026 0.28375,0.06819 0.376672,0.215529 0.08691,0.1378 0.06767,0.410149 -0.04661,0.659765 -0.130207,0.28441 -0.3448,0.375985 -0.601126,0.256526 z"
         id="path926" />
    </g>
    <g
       id="g1012"
       transform="translate(126.37688)"
       inkscape:export-xdpi="60.587021"
       inkscape:export-ydpi="60.587021">
      <g
         id="g1010">
        <rect
           style="fill:#5d77f5;fill-opacity:1;stroke:#000000;stroke-width:1.55055;stroke-miterlimit:4;stroke-dasharray:none;stop-color:#000000"
           id="rect976"
           width="67.505623"
           height="22.80242"
           x="25.275379"
           y="34.373795"
           transform="matrix(1,0,-0.58238532,0.81291288,0,0)" />
        <path
           style="fill:#ffffff;stroke:#f2f2f2;stroke-width:0.264583px;stroke-linecap:butt;stroke-linejoin:miter;stroke-opacity:1"
           d="M 4.6951164,30.518256 H 69.742041"
           id="path978" />
        <path
           style="fill:#ffffff;stroke:#f2f2f2;stroke-width:0.264583px;stroke-linecap:butt;stroke-linejoin:miter;stroke-opacity:1"
           d="M 2.5431881,33.941778 H 67.590113"
           id="path980" />
        <path
           style="fill:#ffffff;stroke:#f2f2f2;stroke-width:0.264583px;stroke-linecap:butt;stroke-linejoin:miter;stroke-opacity:1"
           d="M -0.39125965,37.463115 H 64.655665"
           id="path982" />
        <path
           style="fill:#ffffff;stroke:#f2f2f2;stroke-width:0.264583px;stroke-linecap:butt;stroke-linejoin:miter;stroke-opacity:1"
           d="M -2.6410029,41.180082 H 62.405922"
           id="path984" />
        <path
           style="fill:#ffffff;stroke:#f2f2f2;stroke-width:0.264583px;stroke-linecap:butt;stroke-linejoin:miter;stroke-opacity:1"
           d="M -4.8907462,44.603604 H 60.156179"
           id="path986" />
        <path
           style="fill:#000000;stroke:#000000;stroke-width:1.165;stroke-linecap:butt;stroke-linejoin:miter;stroke-miterlimit:4;stroke-dasharray:none;stroke-opacity:1"
           d="M 12.226865,46.65772 24.551545,28.366328"
           id="path988" />
        <path
           style="fill:#000000;stroke:#000000;stroke-width:1.165;stroke-linecap:butt;stroke-linejoin:miter;stroke-miterlimit:4;stroke-dasharray:none;stroke-opacity:1"
           d="M 35.213373,46.65772 47.538053,28.366328"
           id="path990" />
        <path
           style="fill:none;stroke:#f9f9f9;stroke-width:0.264583px;stroke-linecap:butt;stroke-linejoin:miter;stroke-opacity:1"
           d="M -1.271594,45.386124 9.0967879,29.540107"
           id="path992" />
        <path
           style="fill:none;stroke:#f9f9f9;stroke-width:0.264583px;stroke-linecap:butt;stroke-linejoin:miter;stroke-opacity:1"
           d="M 4.1082269,45.386124 14.476609,29.540107"
           id="path994" />
        <path
           style="fill:none;stroke:#f9f9f9;stroke-width:0.264583px;stroke-linecap:butt;stroke-linejoin:miter;stroke-opacity:1"
           d="M 9.194603,45.679569 19.562985,29.833552"
           id="path996" />
        <path
           style="fill:none;stroke:#f9f9f9;stroke-width:0.264583px;stroke-linecap:butt;stroke-linejoin:miter;stroke-opacity:1"
           d="M 16.726352,45.679569 27.094734,29.833552"
           id="path998" />
        <path
           style="fill:none;stroke:#f9f9f9;stroke-width:0.264583px;stroke-linecap:butt;stroke-linejoin:miter;stroke-opacity:1"
           d="M 22.301803,45.679569 32.670185,29.833552"
           id="path1000" />
        <path
           style="fill:none;stroke:#f9f9f9;stroke-width:0.264583px;stroke-linecap:butt;stroke-linejoin:miter;stroke-opacity:1"
           d="M 28.855403,45.679569 39.223785,29.833552"
           id="path1002" />
        <path
           style="fill:none;stroke:#f9f9f9;stroke-width:0.264583px;stroke-linecap:butt;stroke-linejoin:miter;stroke-opacity:1"
           d="M 41.571343,45.483939 51.939725,29.637922"
           id="path1004" />
        <path
           style="fill:none;stroke:#f9f9f9;stroke-width:0.264583px;stroke-linecap:butt;stroke-linejoin:miter;stroke-opacity:1"
           d="M 47.146794,45.483939 57.515176,29.637922"
           id="path1006" />
        <path
           style="fill:none;stroke:#f9f9f9;stroke-width:0.264583px;stroke-linecap:butt;stroke-linejoin:miter;stroke-opacity:1"
           d="M 54.580728,45.483939 64.94911,29.637922"
           id="path1008" />
      </g>
    </g>
    <circle
       style="fill:#ffffff;fill-opacity:1;stroke:none;stroke-width:1.398;stroke-linecap:round;stroke-miterlimit:4;stroke-dasharray:none;stop-color:#000000"
       id="path1080"
       cx="21.910543"
       cy="84.5121"
       r="7.8251939"
       inkscape:export-xdpi="60"
       inkscape:export-ydpi="60" />
  </g>
</svg>
